<svg width="256" height="256" version="1.1" xmlns="http://www.w3.org/2000/svg" desc="Created with imagetracer.js version 1.2.6" ><path fill="rgb(177,120,142)" stroke="rgb(177,120,142)" stroke-width="1" opacity="0.984313725490196" d="M 79 21 L 183 21 L 183 94.5 L 182 97 L 179.5 98 L 81.5 98 L 79 95.5 L 79 21 Z M 144 33 L 142 35 L 142 92 L 166 92 L 166 35 L 165 33 L 144 33 Z " /><path fill="rgb(177,120,142)" stroke="rgb(177,120,142)" stroke-width="1" opacity="0.984313725490196" d="M 61 140 L 194.5 140 L 195 141.5 L 196 143.5 L 195 146 L 61.5 146 L 61 144.5 L 60 142.5 L 61 140 Z " /><path fill="rgb(177,120,142)" stroke="rgb(177,120,142)" stroke-width="1" opacity="0.984313725490196" d="M 62.5 168 L 193.5 168 L 195 169.5 L 196 171.5 L 193.5 175 L 62.5 175 L 61 173.5 L 60 171.5 L 62.5 168 Z " /><path fill="rgb(177,120,142)" stroke="rgb(177,120,142)" stroke-width="1" opacity="0.984313725490196" d="M 61 197 L 194.5 197 L 195 198.5 L 196 200.5 L 195 203 L 61.5 203 L 61 201.5 L 60 199.5 L 61 197 Z " /><path fill="rgb(177,120,142)" stroke="rgb(177,120,142)" stroke-width="1" opacity="0.984313725490196" d="M 53 224 L 202.5 224 L 203 224.5 L 203 235 L 53.5 235 L 53 234.5 L 53 224 Z " /><path fill="rgb(42,87,182)" stroke="rgb(42,87,182)" stroke-width="1" opacity="0.9921568627450981" d="M 53 21 L 77 22 L 77 93.5 L 80.5 99 L 82 99.5 L 80.5 100 L 79.5 99 L 56.5 99 L 54 96.5 L 53 94.5 L 53 24.5 L 52 23.5 L 53 21 Z " /><path fill="rgb(42,87,182)" stroke="rgb(42,87,182)" stroke-width="1" opacity="0.9921568627450981" d="M 143.5 35 L 165 35 L 165 91 L 143 90.5 L 144 89.5 L 144 36.5 L 143.5 35 Z " /><path fill="rgb(42,87,182)" stroke="rgb(42,87,182)" stroke-width="1" opacity="0.9921568627450981" d="M 31 210 L 43 210 L 43 221 L 31 221 L 31 210 Z " /><path fill="rgb(42,87,182)" stroke="rgb(42,87,182)" stroke-width="1" opacity="0.9921568627450981" d="M 213 210 L 225 210 L 225 221 L 213 221 L 213 210 Z " /><path fill="rgb(42,87,182)" stroke="rgb(42,87,182)" stroke-width="1" opacity="0.9921568627450981" d="M 52.5 225 L 53 235 L 26 234.5 L 52 234 L 52.5 225 Z " /><path fill="rgb(42,87,182)" stroke="rgb(42,87,182)" stroke-width="1" opacity="0.9921568627450981" d="M 203.5 225 L 204 234 L 230 234.5 L 203 235 L 203.5 225 Z " /><path fill="rgb(48,105,206)" stroke="rgb(48,105,206)" stroke-width="1" opacity="0.3215686274509804" d="M 26.5 20 L 183.5 20 L 184 24 L 190 24 L 191.5 20 L 215.5 20 L 236 40.5 L 236 229.5 L 232.5 234 L 234 231.5 L 234 40.5 L 215.5 22 L 191.5 22 L 191 23.5 L 189.5 25 L 183 25 L 182.5 21 L 78.5 21 L 77.5 22 L 61.5 22 Q 59.8 19.3 53.5 21 L 52.5 22 L 24.5 22 L 22 24.5 L 22 231.5 L 24 233.5 L 21 231.5 L 20 229.5 L 20 26.5 L 24.5 21 L 26.5 20 Z " /><path fill="rgb(9,10,13)" stroke="rgb(9,10,13)" stroke-width="1" opacity="0.24313725490196078" d="M 231.5 234 L 231 235.5 Q 231.8 237.8 229.5 237 L 225.5 239 L 30.5 239 L 25 236.5 L 26.5 235 L 230.5 235 L 231.5 234 Z " /><path fill="rgb(47,103,204)" stroke="rgb(47,103,204)" stroke-width="1" opacity="0.996078431372549" d="M 78.5 21 L 79 94.5 L 78 94.5 L 78.5 21 Z " /><path fill="rgb(47,103,204)" stroke="rgb(47,103,204)" stroke-width="1" opacity="0.996078431372549" d="M 24.5 22 L 22.5 25 L 24.5 22 Z " /><path fill="rgb(47,103,204)" stroke="rgb(47,103,204)" stroke-width="1" opacity="0.996078431372549" d="M 215.5 22 L 233.5 41 L 215.5 22 Z " /><path fill="rgb(47,103,204)" stroke="rgb(47,103,204)" stroke-width="1" opacity="0.996078431372549" d="M 190.5 24 L 189.5 26 L 185 25.5 L 190.5 24 Z " /><path fill="rgb(47,103,204)" stroke="rgb(47,103,204)" stroke-width="1" opacity="0.996078431372549" d="M 183.5 25 L 184 96 L 182 95.5 L 183 94.5 L 183.5 25 Z " /><path fill="rgb(47,103,204)" stroke="rgb(47,103,204)" stroke-width="1" opacity="0.996078431372549" d="M 143.5 33 L 165 33.5 L 143 34 L 142.5 92 L 142 34.5 L 143.5 33 Z " /><path fill="rgb(47,103,204)" stroke="rgb(47,103,204)" stroke-width="1" opacity="0.996078431372549" d="M 79.5 96 L 80.5 98 L 79.5 96 Z " /><path fill="rgb(47,103,204)" stroke="rgb(47,103,204)" stroke-width="1" opacity="0.996078431372549" d="M 180.5 97 L 179.5 99 L 82 98.5 L 179.5 98 L 180.5 97 Z " /><path fill="rgb(47,103,204)" stroke="rgb(47,103,204)" stroke-width="1" opacity="0.996078431372549" d="M 56.5 117 L 59 117.5 L 54 119 L 53 121.5 L 52.5 224 L 52 121.5 L 54.5 118 L 56.5 117 Z " /><path fill="rgb(47,103,204)" stroke="rgb(47,103,204)" stroke-width="1" opacity="0.996078431372549" d="M 197.5 117 L 203 119.5 L 204 121.5 L 204 223.5 L 203 223.5 L 203 121.5 L 202 119 L 197.5 118 L 197.5 117 Z " /><path fill="rgb(45,102,205)" stroke="rgb(45,102,205)" stroke-width="1" opacity="1" d="M 25.5 22 L 52 22 L 52 94.5 L 56.5 100 L 82.5 100 L 83.5 101 L 177.5 101 L 184 96.5 L 185 94.5 L 185 26.5 L 184.5 25 L 189.5 26 L 192.5 22 L 214.5 22 L 234 41.5 L 234 231.5 L 232.5 232 L 230.5 234 L 204 234 L 204 225.5 L 205 224.5 L 205 123.5 L 201.5 118 L 198.5 116 L 197.5 117 L 58.5 117 Q 57 114.5 55.5 118 L 53 119.5 L 51 123.5 L 51 224.5 L 52 225.5 L 52 234 L 25.5 234 L 22 231.5 L 22 25.5 L 25.5 22 Z M 31 209 L 31 221 L 43 221 L 43 209 L 31 209 Z M 213 209 L 213 221 L 225 221 L 225 209 L 213 209 Z " /><path fill="rgb(0,0,0)" stroke="rgb(0,0,0)" stroke-width="1" opacity="0" d="M 0 0 L 256 0 L 256 256 L 0 256 L 0 0 Z M 27 20 L 25 21 L 20 27 L 20 230 L 21 232 L 26 235 L 25 237 L 31 239 L 226 239 L 231 237 L 236 230 L 236 41 L 216 20 L 192 20 L 190 24 L 184 24 L 184 20 L 27 20 Z " /><path fill="rgb(47,97,194)" stroke="rgb(47,97,194)" stroke-width="1" opacity="1" d="M 77.5 22 L 78 93.5 L 77 93.5 L 77.5 22 Z " /><path fill="rgb(47,97,194)" stroke="rgb(47,97,194)" stroke-width="1" opacity="1" d="M 143.5 34 L 166 34 L 166 90.5 L 164.5 92 L 143.5 92 L 143.5 91 L 165 91 L 165 35 L 143.5 35 L 143.5 34 Z " /><path fill="rgb(47,97,194)" stroke="rgb(47,97,194)" stroke-width="1" opacity="1" d="M 143.5 36 L 144 89.5 L 143 89.5 L 143.5 36 Z " /><path fill="rgb(47,97,194)" stroke="rgb(47,97,194)" stroke-width="1" opacity="1" d="M 53.5 95 L 56.5 99 L 80 98.5 L 78 95.5 L 79 95.5 L 80.5 98 L 82.5 99 L 179.5 99 L 183 96.5 L 181.5 99 L 179.5 100 L 82.5 100 L 80.5 99 L 79.5 100 L 56.5 100 L 53 96.5 L 53.5 95 Z " /><path fill="rgb(42,99,203)" stroke="rgb(42,99,203)" stroke-width="1" opacity="1" d="M 52.5 25 L 53 94.5 L 52 94.5 L 52.5 25 Z " /><path fill="rgb(42,99,203)" stroke="rgb(42,99,203)" stroke-width="1" opacity="1" d="M 184.5 26 L 185 93.5 L 184 93.5 L 184.5 26 Z " /><path fill="rgb(42,99,203)" stroke="rgb(42,99,203)" stroke-width="1" opacity="1" d="M 83.5 100 L 178 100.5 L 83.5 101 L 83.5 100 Z " /><path fill="rgb(42,99,203)" stroke="rgb(42,99,203)" stroke-width="1" opacity="1" d="M 31.5 209 L 43 209.5 L 31.5 210 L 31.5 209 Z " /><path fill="rgb(42,99,203)" stroke="rgb(42,99,203)" stroke-width="1" opacity="1" d="M 213.5 209 L 225 209.5 L 213.5 210 L 213.5 209 Z " /><path fill="rgb(238,228,229)" stroke="rgb(238,228,229)" stroke-width="1" opacity="0.996078431372549" d="M 59.5 117 L 197 117.5 L 59.5 118 L 59.5 117 Z " /><path fill="rgb(238,228,229)" stroke="rgb(238,228,229)" stroke-width="1" opacity="0.996078431372549" d="M 62.5 139 L 194 139.5 L 62.5 140 L 62.5 139 Z " /><path fill="rgb(238,228,229)" stroke="rgb(238,228,229)" stroke-width="1" opacity="0.996078431372549" d="M 62.5 146 L 194 146.5 L 62.5 147 L 62.5 146 Z " /><path fill="rgb(238,228,229)" stroke="rgb(238,228,229)" stroke-width="1" opacity="0.996078431372549" d="M 61.5 168 L 61 169.5 L 60.5 171 L 60 169.5 L 61.5 168 Z " /><path fill="rgb(238,228,229)" stroke="rgb(238,228,229)" stroke-width="1" opacity="0.996078431372549" d="M 194.5 168 L 196 170.5 L 195 170.5 L 194.5 168 Z " /><path fill="rgb(238,228,229)" stroke="rgb(238,228,229)" stroke-width="1" opacity="0.996078431372549" d="M 60.5 172 L 62 174.5 L 60 173.5 L 60.5 172 Z " /><path fill="rgb(238,228,229)" stroke="rgb(238,228,229)" stroke-width="1" opacity="0.996078431372549" d="M 195.5 172 L 196 173.5 L 194 174.5 L 195.5 172 Z " /><path fill="rgb(238,228,229)" stroke="rgb(238,228,229)" stroke-width="1" opacity="0.996078431372549" d="M 62.5 196 L 194 196.5 L 62.5 197 L 62.5 196 Z " /><path fill="rgb(238,228,229)" stroke="rgb(238,228,229)" stroke-width="1" opacity="0.996078431372549" d="M 62.5 203 L 194 203.5 L 62.5 204 L 62.5 203 Z " /><path fill="rgb(42,99,204)" stroke="rgb(42,99,204)" stroke-width="1" opacity="1" d="M 51.5 123 L 52 224.5 L 51 224.5 L 51.5 123 Z " /><path fill="rgb(42,99,204)" stroke="rgb(42,99,204)" stroke-width="1" opacity="1" d="M 204.5 123 L 205 224.5 L 204 224.5 L 204.5 123 Z " /><path fill="rgb(241,241,241)" stroke="rgb(241,241,241)" stroke-width="1" opacity="1" d="M 57.5 118 L 198.5 118 L 202 120.5 L 203 123.5 L 203 222.5 L 201.5 224 L 54.5 224 L 53 222.5 L 53 123.5 L 55.5 119 L 57.5 118 Z M 63 139 Q 59 140 60 145 L 63 147 L 194 147 Q 197 146 196 142 L 194 139 L 63 139 Z M 62 168 Q 59 169 60 174 L 62 175 L 195 175 Q 197 174 196 170 L 195 168 L 62 168 Z M 63 196 L 62 197 Q 58 196 60 202 L 63 204 L 194 204 Q 197 203 196 197 L 194 196 L 63 196 Z " /></svg>