<svg width="256" height="256" version="1.1" xmlns="http://www.w3.org/2000/svg" desc="Created with imagetracer.js version 1.2.6" ><path fill="rgb(248,192,98)" stroke="rgb(248,192,98)" stroke-width="1" opacity="1" d="M 13 20 L 17.5 21 L 18.5 20 L 100.5 20 L 108.5 22 L 115.5 26 L 141 50.5 L 117.5 74 L 110.5 78 L 102.5 80 L 77.5 80 L 75.5 80 L 71.5 80 L 13 21.5 L 13 20 Z " /><path fill="rgb(248,192,98)" stroke="rgb(248,192,98)" stroke-width="1" opacity="1" d="M 5.5 24 L 4.5 26 L 5.5 24 Z " /><path fill="rgb(248,192,98)" stroke="rgb(248,192,98)" stroke-width="1" opacity="1" d="M 0.5 33 L 1 35.5 L 0 35.5 L 0.5 33 Z " /><path fill="rgb(248,192,98)" stroke="rgb(248,192,98)" stroke-width="1" opacity="1" d="M 83.5 165 L 81.5 168 L 83.5 165 Z " /><path fill="rgb(248,192,98)" stroke="rgb(248,192,98)" stroke-width="1" opacity="1" d="M 172.5 165 L 174.5 168 L 172.5 165 Z " /><path fill="rgb(252,215,129)" stroke="rgb(252,215,129)" stroke-width="1" opacity="0.9921568627450981" d="M 141.5 51 L 144 52.5 L 119.5 78 L 112.5 82 L 104.5 84 L 0 84 L 0.5 80 L 105.5 80 L 118.5 74 L 141.5 51 Z " /><path fill="rgb(253,219,125)" stroke="rgb(253,219,125)" stroke-width="1" opacity="0.9882352941176471" d="M 144.5 48 L 244.5 48 Q 251 49.5 254 54.5 Q 256.7 57.8 256 64.5 L 255 64.5 Q 254.1 57.9 249.5 55 L 242.5 52 L 145.5 52 L 133 63.5 L 144 52.5 Q 139.8 50.3 144.5 48 Z " /><path fill="rgb(247,190,100)" stroke="rgb(247,190,100)" stroke-width="1" opacity="1" d="M 17.5 20 L 76.5 80 L 17.5 20 Z " /><path fill="rgb(247,190,100)" stroke="rgb(247,190,100)" stroke-width="1" opacity="1" d="M 11.5 21 L 71 79.5 L 0 80 L 0 36.5 L 3 27.5 L 7.5 23 L 11.5 21 Z " /><path fill="rgb(247,190,100)" stroke="rgb(247,190,100)" stroke-width="1" opacity="1" d="M 85.5 160 L 170.5 160 L 174 162 L 176 165.5 L 176 169.5 L 175 169.5 Q 175.5 165.5 172.5 165 L 170.5 164 L 85.5 164 L 81 167.5 L 80.5 170 L 80 165.5 L 82 162 L 85.5 160 Z " /><path fill="rgb(252,207,104)" stroke="rgb(252,207,104)" stroke-width="1" opacity="1" d="M 118.5 28 L 119.5 30 L 118.5 28 Z " /><path fill="rgb(252,207,104)" stroke="rgb(252,207,104)" stroke-width="1" opacity="1" d="M 144.5 54 L 219 127.5 L 151.5 128 L 108 84.5 L 108 83 Q 116.5 82.4 121.5 77 L 139 59.5 L 142.5 55 L 144.5 54 Z " /><path fill="rgb(253,210,102)" stroke="rgb(253,210,102)" stroke-width="1" opacity="1" d="M 145.5 52 L 242.5 52 Q 249.4 53.6 253 58.5 L 256 65.5 L 256 128 L 219.5 128 L 144.5 54 L 143 54.5 L 145.5 52 Z " /><path fill="rgb(253,210,102)" stroke="rgb(253,210,102)" stroke-width="1" opacity="1" d="M 138.5 59 L 130.5 68 L 138.5 59 Z " /><path fill="rgb(251,204,113)" stroke="rgb(251,204,113)" stroke-width="1" opacity="0.984313725490196" d="M 10.5 16 L 105.5 16 L 118.5 22 L 144 47.5 L 141.5 51 L 117.5 27 Q 111.8 21.7 102.5 20 L 12.5 20 L 3 26.5 L 0.5 33 L 0 26.5 L 6.5 18 L 10.5 16 Z " /><path fill="rgb(251,204,113)" stroke="rgb(251,204,113)" stroke-width="1" opacity="0.984313725490196" d="M 132.5 59 L 125.5 67 L 132.5 59 Z " /><path fill="rgb(251,204,113)" stroke="rgb(251,204,113)" stroke-width="1" opacity="0.984313725490196" d="M 119.5 72 L 118.5 74 L 119.5 72 Z " /><path fill="rgb(252,205,107)" stroke="rgb(252,205,107)" stroke-width="1" opacity="1" d="M 140.5 51 L 133.5 59 L 140.5 51 Z " /><path fill="rgb(252,205,107)" stroke="rgb(252,205,107)" stroke-width="1" opacity="1" d="M 124.5 67 L 120.5 72 L 124.5 67 Z " /><path fill="rgb(252,205,107)" stroke="rgb(252,205,107)" stroke-width="1" opacity="1" d="M 129.5 68 L 121.5 77 L 129.5 68 Z " /><path fill="rgb(252,205,107)" stroke="rgb(252,205,107)" stroke-width="1" opacity="1" d="M 107.5 83 L 151 127.5 L 0 128 L 0 84 L 106.5 84 L 107.5 83 Z " /><path fill="rgb(252,205,107)" stroke="rgb(252,205,107)" stroke-width="1" opacity="1" d="M 86.5 164 L 168.5 164 L 175 168.5 Q 175.8 174.3 171.5 175 L 167.5 176 L 88.5 176 L 84.5 175 L 81 171.5 Q 80.3 165.8 84.5 165 L 86.5 164 Z " /><path fill="rgb(81,91,123)" stroke="rgb(81,91,123)" stroke-width="1" opacity="1" d="M 0 128 L 255.5 128 L 256 128.5 L 256 212.5 L 174.5 132 L 0.5 132 L 0 128 Z " /><path fill="rgb(81,91,123)" stroke="rgb(81,91,123)" stroke-width="1" opacity="1" d="M 173.5 161 L 174.5 163 L 173.5 161 Z " /><path fill="rgb(66,68,85)" stroke="rgb(66,68,85)" stroke-width="1" opacity="0.9921568627450981" d="M 0.5 239 Q 1.4 247.1 7.5 250 L 11.5 252 L 243.5 252 Q 250.7 250.2 254 244.5 L 255.5 240 L 256 243.5 Q 254.2 250.7 248.5 254 L 243.5 256 L 11.5 256 L 3 250.5 Q -1.6 247 0.5 239 Z " /><path fill="rgb(80,83,108)" stroke="rgb(80,83,108)" stroke-width="1" opacity="0.996078431372549" d="M 253.5 249 L 251.5 252 L 253.5 249 Z " /><path fill="rgb(80,83,108)" stroke="rgb(80,83,108)" stroke-width="1" opacity="0.996078431372549" d="M 241.5 251 L 244 251.5 L 241.5 252 L 241.5 251 Z " /><path fill="rgb(79,86,114)" stroke="rgb(79,86,114)" stroke-width="1" opacity="1" d="M 97.5 132 L 174.5 132 L 256 213.5 L 256 235.5 Q 253.7 236.8 255 241.5 L 247.5 250 L 240.5 252 L 216.5 252 L 141.5 176 L 169.5 176 L 170.5 175 L 172 175.5 Q 171.3 172.9 174 174 L 174 172 L 176 172 L 176 164.5 L 173.5 161 L 171.5 160 L 124.5 160 L 97.5 132 Z " /><path fill="rgb(0,0,0)" stroke="rgb(0,0,0)" stroke-width="1" opacity="0" d="M 0 0 L 255.5 0 L 256 0.5 L 256 57.5 L 255 57.5 L 249.5 50 L 245.5 48 L 144.5 48 L 118.5 22 L 105.5 16 L 10.5 16 L 2 22.5 L 0.5 26 L 0 0 Z " /><path fill="rgb(0,0,0)" stroke="rgb(0,0,0)" stroke-width="1" opacity="0" d="M 0.5 246 L 5.5 253 L 11 255.5 L 0 256 L 0.5 246 Z " /><path fill="rgb(0,0,0)" stroke="rgb(0,0,0)" stroke-width="1" opacity="0" d="M 255.5 246 L 256 256 L 246 255.5 L 254 249.5 L 255.5 246 Z " /><path fill="rgb(83,84,101)" stroke="rgb(83,84,101)" stroke-width="1" opacity="1" d="M 0.5 138 L 113.5 252 L 11.5 252 L 2 244.5 L 0 238.5 L 0.5 138 Z " /><path fill="rgb(82,84,106)" stroke="rgb(82,84,106)" stroke-width="1" opacity="1" d="M 0 132 L 49.5 132 L 80.5 163 L 84.5 160 L 83.5 162 Q 81.3 161.3 82 163.5 Q 79 164.5 80 169.5 L 82 174 Q 85.3 177 93.5 176 L 169 251.5 L 114.5 252 L 0 137.5 L 0 132 Z " /><path fill="rgb(81,84,111)" stroke="rgb(81,84,111)" stroke-width="1" opacity="1" d="M 50.5 132 L 96.5 132 L 124 159.5 L 84.5 160 L 80.5 163 L 50.5 132 Z " /><path fill="rgb(81,84,111)" stroke="rgb(81,84,111)" stroke-width="1" opacity="1" d="M 94.5 176 L 140.5 176 L 216 251.5 L 169.5 252 L 94.5 176 Z " /><path fill="rgb(81,84,111)" stroke="rgb(81,84,111)" stroke-width="1" opacity="1" d="M 251.5 246 L 250.5 248 L 251.5 246 Z " /></svg>